Coordinates
version=1
nRows=8
nColumns=40
inDegrees=yes

Units are S.I. units (second, meters, Newtons, ...)
If the header above contains a line with 'inDegrees', this indicates whether rotational values are in degrees (yes) or radians (no).

endheader
time	pelvis_tilt	pelvis_list	pelvis_rotation	pelvis_tx	pelvis_ty	pelvis_tz	hip_flexion_r	hip_adduction_r	hip_rotation_r	knee_angle_r	knee_angle_r_beta	ankle_angle_r	subtalar_angle_r	mtp_angle_r	hip_flexion_l	hip_adduction_l	hip_rotation_l	knee_angle_l	knee_angle_l_beta	ankle_angle_l	subtalar_angle_l	mtp_angle_l	lumbar_extension	lumbar_bending	lumbar_rotation	arm_flex_r	arm_add_r	arm_rot_r	elbow_flex_r	pro_sup_r	wrist_flex_r	wrist_dev_r	arm_flex_l	arm_add_l	arm_rot_l	elbow_flex_l	pro_sup_l	wrist_flex_l	wrist_dev_l
      3.75000000	     -7.52620611	     -9.92726692	      1.59922441	     -0.32603606	      0.76158800	     -0.97319640	     66.02270547	     -0.29101529	     -9.42083657	     17.77423741	      0.31021896	    -17.37515869	      0.00000000	      0.00000000	     59.84523650	     -8.55640360	      2.01171913	     87.13460127	      1.52078568	     24.27703929	      0.00000000	      0.00000000	    -15.13248772	      2.13138687	      7.01326953	     89.93942814	     -6.59799386	     14.14034294	     37.25243560	     80.97732213	      0.00000000	      0.00000000	     89.95342026	    -19.15109218	     17.57303760	     46.38702212	     82.02270008	      0.00000000	      0.00000000
      3.75500000	     -7.52674956	     -9.97511924	      1.63856934	     -0.32592415	      0.76292750	     -0.97321478	     65.97760951	     -0.27801341	     -9.38797234	     17.81561317	      0.31094111	    -17.35666825	      0.00000000	      0.00000000	     59.70706174	     -8.56950651	      2.04079995	     86.88668431	      1.51645872	     24.18586084	      0.00000000	      0.00000000	    -15.05845009	      2.17417621	      6.98360702	     89.93927852	     -6.63707805	     14.15730613	     37.24349945	     80.98325227	      0.00000000	      0.00000000	     89.95327311	    -19.17377113	     17.59812387	     46.38584156	     82.03141847	      0.00000000	      0.00000000
      3.76000000	     -7.51524107	     -9.98482263	      1.64826998	     -0.32581809	      0.76430816	     -0.97324930	     65.91649627	     -0.27805886	     -9.33982174	     17.82949641	      0.31118342	    -17.36477761	      0.00000000	      0.00000000	     59.52082854	     -8.54998817	      2.06920165	     86.58988561	      1.51127860	     24.07902279	      0.00000000	      0.00000000	    -14.98360865	      2.20002216	      6.97415736	     89.93925105	     -6.66008676	     14.19426615	     37.26923888	     80.98986547	      0.00000000	      0.00000000	     89.95301558	    -19.20643007	     17.68571323	     46.30313144	     82.04682923	      0.00000000	      0.00000000
      3.76500000	     -7.44646213	     -9.95238753	      1.68289105	     -0.32555358	      0.76585921	     -0.97329389	     65.78583308	     -0.31176859	     -9.34809220	     17.85985891	      0.31171334	    -17.29411376	      0.00000000	      0.00000000	     59.21722103	     -8.50840066	      2.03983545	     86.21583281	      1.50475015	     23.96034875	      0.00000000	      0.00000000	    -14.92127411	      2.17071061	      7.00444636	     89.93922719	     -6.72874181	     14.28886234	     37.12888723	     80.99883190	      0.00000000	      0.00000000	     89.95293688	    -18.64699669	     17.17243223	     45.80686846	     82.00284499	      0.00000000	      0.00000000
      3.77000000	     -7.46287081	     -9.97887108	      1.63953917	     -0.32534439	      0.76718708	     -0.97337032	     65.77107298	     -0.26345575	     -9.33055029	     17.88065201	      0.31207625	    -17.30659206	      0.00000000	      0.00000000	     59.10495293	     -8.51922404	      2.05512172	     86.08812466	      1.50252122	     23.91198605	      0.00000000	      0.00000000	    -14.83064108	      2.18407983	      7.10471984	     89.93913643	     -6.86947228	     14.27747377	     37.17602556	     80.99933682	      0.00000000	      0.00000000	     89.95277096	    -18.87214195	     17.25665977	     45.89154249	     82.01754075	      0.00000000	      0.00000000
      3.77500000	     -7.46806448	    -10.01715775	      1.60880674	     -0.32516150	      0.76859258	     -0.97322262	     65.73676115	     -0.19326859	     -9.26071865	     17.94462158	      0.31319273	    -17.33202048	      0.00000000	      0.00000000	     58.89776297	     -8.56551272	      2.10659047	     85.75345424	      1.49668012	     23.74859121	      0.00000000	      0.00000000	    -14.73063162	      2.22580464	      7.09315993	     89.93880653	     -6.79842380	     14.35986486	     37.21313456	     81.00883450	      0.00000000	      0.00000000	     89.95242932	    -18.61044904	     17.15752352	     45.78031237	     82.01417575	      0.00000000	      0.00000000
      3.78000000	     -7.48496681	    -10.04550964	      1.59696722	     -0.32490054	      0.76996775	     -0.97341191	     65.69398475	     -0.17256296	     -9.25753988	     17.96818368	      0.31360397	    -17.34931429	      0.00000000	      0.00000000	     58.78537407	     -8.54335381	      2.13384565	     85.59703171	      1.49395003	     23.67730134	      0.00000000	      0.00000000	    -14.63746624	      2.25089479	      7.16926466	     89.93871256	     -6.94828395	     14.34886102	     37.21557488	     81.00809857	      0.00000000	      0.00000000	     89.95227726	    -18.84149820	     17.23752169	     45.80844698	     82.02598031	      0.00000000	      0.00000000
      3.78500000	     -7.38355586	    -10.01246896	      1.54506789	     -0.32456103	      0.77166501	     -0.97339169	     65.55491796	     -0.12519599	     -9.22892356	     18.03859115	      0.31483281	    -17.35257163	      0.00000000	      0.00000000	     58.40637801	     -8.57357915	      2.06846104	     85.18799815	      1.48681105	     23.50122074	      0.00000000	      0.00000000	    -14.65287244	      2.22672230	      7.20697201	     89.93902819	     -6.92560083	     14.62059780	     37.22863522	     81.07284950	      0.00000000	      0.00000000	     89.95240321	    -19.12850460	     17.99064387	     45.94512329	     82.14648474	      0.00000000	      0.00000000
